<?xml version="1.0" standalone="no"?>
<!DOCTYPE svg PUBLIC "-//W3C//DTD SVG 20010904//EN"
 "http://www.w3.org/TR/2001/REC-SVG-20010904/DTD/svg10.dtd">
<svg version="1.0" xmlns="http://www.w3.org/2000/svg"
 width="1408.000000pt" height="768.000000pt" viewBox="0 0 1408.000000 768.000000"
 preserveAspectRatio="xMidYMid meet">

<g transform="translate(0.000000,768.000000) scale(0.100000,-0.100000)"
fill="#000000" stroke="none">
<path d="M12463 5866 c-54 -54 -73 -80 -73 -99 0 -20 -13 -37 -52 -68 -58 -46
-73 -38 -43 21 9 18 14 34 11 37 -8 8 -74 -39 -80 -57 -4 -8 -9 -21 -12 -27
-3 -8 2 -13 14 -13 29 0 35 -37 9 -55 -28 -20 -40 -19 -33 3 3 9 1 24 -4 32
-8 12 -15 10 -42 -16 -18 -17 -41 -37 -51 -45 -10 -8 -43 -38 -72 -66 -30 -29
-59 -53 -64 -53 -5 0 -13 -9 -16 -20 -8 -26 -40 -43 -66 -35 -11 4 -31 25 -46
48 -14 23 -40 56 -58 72 -47 43 -140 97 -183 105 -20 4 -49 11 -63 14 -22 6
-33 0 -77 -44 -51 -51 -52 -54 -52 -111 0 -74 24 -139 84 -224 25 -36 46 -69
46 -73 0 -3 -12 -17 -27 -30 -24 -20 -25 -21 -3 -8 41 27 74 17 136 -39 12
-11 29 -26 38 -33 20 -16 13 -29 -44 -94 -23 -27 -37 -48 -30 -48 14 0 -48
-117 -66 -124 -10 -4 -14 -25 -14 -78 0 -64 3 -75 25 -98 14 -14 36 -37 49
-52 34 -38 65 -35 106 7 19 19 39 35 46 35 7 0 19 7 28 15 8 8 34 23 58 34 24
10 66 29 93 41 28 13 71 25 97 28 40 4 53 0 82 -22 26 -19 47 -26 80 -26 53 0
76 8 76 26 0 7 9 19 21 28 16 11 19 20 14 38 -15 45 -52 88 -111 126 -72 47
-84 61 -122 137 -38 77 -55 132 -48 152 4 9 -1 24 -10 34 -15 16 -13 21 18 65
46 66 127 148 163 165 24 12 29 20 27 42 -5 39 45 107 79 107 25 0 119 55 119
69 0 10 83 67 110 76 21 7 22 5 17 -24 -6 -29 -5 -31 22 -31 35 0 55 22 48 52
-5 17 3 31 33 58 49 45 51 66 8 75 -18 4 -52 16 -75 26 -23 11 -43 19 -45 18
-2 0 -36 -33 -75 -73z m-726 -443 c35 -38 63 -71 63 -75 0 -4 -20 -21 -45 -39
-55 -39 -52 -48 5 -19 66 34 70 13 20 -90 -10 -21 -60 -26 -60 -6 0 9 -8 16
-19 16 -10 0 -21 9 -24 20 -3 11 -14 20 -24 20 -22 0 -79 66 -94 109 -13 36 4
106 29 120 9 6 33 11 52 11 30 0 43 -9 97 -67z m173 -343 c0 -5 -7 -10 -15
-10 -8 0 -15 5 -15 10 0 6 7 10 15 10 8 0 15 -4 15 -10z m-110 -101 c0 -5 -7
-9 -15 -9 -9 0 -12 6 -9 15 6 15 24 11 24 -6z m105 -38 c30 -20 41 -35 43 -57
3 -29 -1 -32 -65 -62 -37 -17 -85 -34 -105 -37 -37 -7 -38 -6 -38 21 0 16 11
47 25 69 14 22 32 55 40 73 18 39 35 37 100 -7z"/>
<path d="M12470 5539 c0 -5 5 -7 10 -4 6 3 10 8 10 11 0 2 -4 4 -10 4 -5 0
-10 -5 -10 -11z"/>
<path d="M12355 5531 c-3 -5 -1 -12 5 -16 12 -7 30 2 30 16 0 12 -27 12 -35 0z"/>
<path d="M12874 5475 c-9 -24 4 -51 18 -37 9 9 15 8 27 -1 10 -8 13 -8 8 0 -4
6 -2 13 4 15 5 2 7 11 4 21 -9 21 -53 23 -61 2z"/>
<path d="M12260 5397 c-8 -7 -23 -24 -32 -38 -9 -14 -30 -32 -47 -39 -17 -7
-31 -19 -31 -26 0 -17 22 -18 37 -3 5 5 25 18 44 27 28 15 66 61 68 85 1 11
-22 8 -39 -6z"/>
<path d="M4290 5250 c-16 -10 -93 -34 -144 -45 -15 -3 -52 -28 -80 -55 -29
-27 -70 -57 -92 -66 -21 -9 -59 -31 -84 -49 -25 -18 -103 -63 -175 -101 -162
-85 -277 -172 -291 -219 -12 -42 -78 -166 -93 -178 -12 -8 -16 -24 -15 -51 2
-43 -44 -143 -123 -267 -13 -19 -23 -44 -23 -56 0 -16 -14 -26 -72 -47 -40
-14 -81 -26 -92 -26 -10 0 -33 -9 -50 -19 -17 -11 -55 -27 -84 -37 -66 -21
-74 -13 -65 66 5 40 16 69 40 103 19 27 35 60 36 73 1 14 7 28 14 32 13 8 19
78 9 103 -4 9 1 22 14 34 11 10 20 30 20 45 0 19 6 29 20 33 11 3 24 16 30 29
5 12 21 40 35 60 30 45 24 48 -78 46 -61 -1 -72 -4 -93 -27 -13 -14 -24 -28
-24 -31 0 -3 -14 -14 -30 -24 -32 -18 -101 -78 -184 -158 -27 -27 -53 -48 -57
-48 -5 0 -39 -29 -76 -65 -38 -36 -74 -65 -80 -65 -7 0 -13 -4 -13 -8 0 -11
-196 -182 -208 -182 -4 0 -21 -14 -38 -31 -16 -17 -60 -53 -99 -80 -38 -27
-92 -64 -118 -83 -30 -21 -67 -37 -95 -41 -97 -14 -147 -34 -166 -66 -22 -37
-13 -51 50 -75 85 -32 183 4 364 135 30 22 71 49 90 59 19 11 44 30 55 42 11
13 36 33 55 45 19 12 85 62 145 111 61 48 115 92 120 96 6 4 26 20 44 35 30
24 34 25 27 8 -5 -11 -11 -31 -14 -45 -2 -14 -10 -32 -17 -40 -7 -8 -31 -55
-54 -105 -59 -127 -69 -145 -113 -192 -29 -32 -38 -51 -38 -77 0 -19 4 -38 10
-41 5 -3 42 8 82 25 40 16 87 30 104 30 32 0 75 12 129 35 17 7 41 16 54 20
13 4 60 24 105 44 142 65 202 77 163 33 -15 -16 -15 -25 -5 -78 10 -47 21 -67
51 -96 43 -42 107 -90 154 -115 18 -9 35 -24 38 -33 3 -9 17 -22 30 -28 14 -7
30 -23 37 -37 6 -13 19 -27 29 -30 10 -3 23 -21 29 -39 6 -19 26 -55 45 -82
19 -27 35 -53 35 -59 0 -26 98 -151 132 -170 35 -18 38 -19 72 -2 27 13 43 32
70 85 36 72 91 158 104 164 4 2 22 23 40 48 45 62 219 238 263 266 20 12 63
47 95 76 59 54 117 94 164 114 14 6 46 28 73 48 26 20 56 36 66 36 24 0 129
79 137 104 4 11 1 22 -7 27 -24 14 14 90 111 221 25 34 50 70 57 82 25 43 230
259 318 334 151 130 385 255 427 229 10 -7 18 -23 18 -36 0 -42 -70 -267 -96
-308 -8 -12 -14 -28 -14 -35 0 -35 -229 -462 -333 -621 -98 -149 -148 -234
-165 -283 -10 -27 -26 -61 -36 -76 -17 -27 -17 -28 2 -56 14 -18 40 -35 78
-48 31 -10 59 -25 61 -31 8 -21 38 -15 65 15 24 25 52 76 94 167 10 22 35 70
56 107 21 36 38 75 38 85 0 10 9 29 20 43 11 14 20 28 20 32 0 4 25 46 56 93
30 47 73 123 94 169 53 115 96 180 203 304 181 211 360 366 567 489 37 22 133
57 187 68 44 9 57 -18 49 -97 -11 -92 -35 -154 -165 -428 -67 -140 -121 -263
-121 -273 0 -10 -6 -31 -14 -45 -47 -87 -88 -267 -91 -403 -3 -104 -1 -122 19
-165 36 -77 99 -119 191 -128 59 -5 61 -5 115 37 56 44 94 79 147 137 17 19
57 60 88 90 66 63 115 126 115 148 0 21 104 142 123 142 4 0 7 13 7 29 0 16 7
34 15 41 8 7 15 23 15 36 0 14 6 24 14 24 16 0 76 50 76 63 0 4 26 40 58 79
31 40 65 83 74 97 28 41 91 111 100 111 4 0 8 -33 8 -74 0 -88 11 -122 41
-131 22 -7 43 11 32 28 -3 4 3 11 14 13 22 6 49 63 64 136 10 47 6 100 -17
184 -4 15 7 36 41 75 25 29 52 57 60 61 7 5 80 15 162 23 81 8 193 24 248 35
55 12 136 28 180 36 44 8 94 19 110 24 42 12 115 23 115 16 0 -3 -125 -131
-277 -285 -153 -154 -307 -312 -343 -352 -169 -189 -273 -296 -403 -418 -45
-43 -60 -82 -37 -96 6 -3 10 -17 10 -30 0 -29 20 -75 32 -75 13 0 91 54 108
75 18 22 93 69 195 124 44 24 85 47 90 51 18 15 218 78 279 89 33 6 76 11 95
11 39 0 141 -22 141 -30 0 -3 -40 -34 -88 -69 -48 -36 -103 -79 -122 -97 -19
-17 -75 -62 -125 -100 -88 -66 -255 -207 -345 -290 -25 -23 -72 -64 -105 -90
-61 -49 -113 -95 -221 -196 -55 -52 -65 -58 -105 -58 -58 0 -340 -27 -359 -34
-8 -3 -69 -10 -135 -16 -66 -5 -140 -14 -165 -20 -83 -18 -355 -54 -394 -52
-22 1 -44 -2 -50 -7 -6 -5 -47 -11 -91 -14 -44 -2 -100 -9 -125 -15 -25 -5
-88 -15 -140 -21 -52 -6 -126 -18 -165 -26 -203 -42 -331 -65 -470 -85 -44 -6
-89 -16 -100 -20 -18 -8 -85 -20 -220 -40 -81 -12 -300 -59 -331 -71 -16 -6
-49 -15 -74 -19 -186 -36 -314 -66 -475 -111 -60 -16 -135 -36 -165 -43 -30
-8 -95 -27 -145 -43 -49 -17 -117 -36 -150 -42 -33 -7 -94 -26 -136 -42 -41
-16 -82 -29 -90 -29 -8 0 -45 -16 -84 -36 -63 -33 -89 -41 -190 -61 -40 -7
-53 -19 -64 -57 -9 -36 8 -79 38 -95 23 -13 154 -5 236 14 33 8 78 17 100 20
22 3 59 10 83 16 23 5 61 13 85 18 229 51 776 183 867 210 36 10 108 29 160
40 52 12 122 28 155 36 33 8 94 21 135 29 92 18 184 39 310 70 89 22 124 29
268 57 31 6 71 15 87 20 17 4 118 24 225 44 107 20 211 40 230 45 19 5 71 15
115 21 44 6 116 17 160 25 44 8 146 23 226 34 81 10 158 21 170 24 13 3 44 7
69 10 25 3 86 12 136 20 111 19 264 29 264 19 0 -5 -23 -33 -50 -63 -144 -156
-329 -387 -398 -496 -26 -42 -41 -55 -80 -68 -26 -9 -75 -28 -110 -42 -34 -13
-71 -24 -81 -24 -10 0 -49 -15 -87 -33 -38 -19 -91 -40 -119 -47 -27 -7 -57
-19 -66 -27 -8 -7 -20 -13 -25 -13 -5 0 -47 -16 -93 -35 -45 -19 -87 -35 -93
-35 -5 0 -44 -16 -86 -36 -42 -20 -117 -54 -167 -77 -80 -38 -219 -107 -402
-202 -81 -43 -143 -92 -143 -115 0 -20 39 -55 72 -65 12 -5 48 7 101 33 45 22
120 53 167 68 86 28 275 94 340 118 19 8 69 24 110 36 41 13 80 27 86 31 6 5
34 14 64 20 29 6 67 20 84 30 17 10 40 19 50 19 22 0 123 31 201 61 28 10 61
19 74 19 20 0 22 -4 17 -23 -13 -43 -37 -292 -32 -334 3 -23 16 -65 30 -95 13
-29 30 -69 37 -88 14 -36 89 -135 123 -160 61 -46 222 -150 232 -150 6 0 32
-9 57 -20 25 -11 83 -27 128 -36 147 -28 433 -5 504 40 11 8 36 17 55 21 19 4
58 18 85 30 28 13 65 26 83 30 44 9 151 58 199 91 21 14 61 37 88 50 113 55
288 176 324 225 12 16 28 29 36 29 30 0 124 62 159 105 26 31 50 48 85 60 37
12 58 27 83 60 18 24 43 49 56 56 12 7 39 38 59 68 20 31 44 65 53 76 9 11 28
40 41 65 13 25 34 58 46 73 13 16 23 37 23 47 0 9 7 23 15 30 8 7 15 18 15 25
0 6 11 33 24 60 20 39 24 60 22 109 -3 43 1 66 11 78 8 9 19 35 24 58 5 23 15
48 22 54 13 13 61 24 137 32 25 3 54 7 65 10 81 19 301 51 319 45 5 -1 30 2
55 8 25 5 82 15 126 22 44 6 84 14 89 17 5 3 37 6 70 7 94 2 382 43 471 66 44
12 94 23 110 26 93 14 188 34 203 42 9 4 40 12 67 16 28 3 59 15 70 25 12 10
44 20 81 23 69 7 189 59 205 88 16 31 -10 87 -58 124 -34 26 -55 33 -110 39
-37 4 -73 12 -81 18 -7 7 -35 15 -60 19 -26 5 -72 13 -102 18 -54 10 -141 17
-355 26 -60 3 -157 9 -215 13 -115 9 -618 7 -745 -3 -44 -3 -127 -8 -185 -10
-58 -3 -119 -7 -136 -10 -45 -8 -51 2 -75 135 -25 134 -55 219 -126 355 -41
78 -127 204 -185 269 l-52 59 31 26 c33 28 177 143 254 203 26 20 56 45 67 55
10 10 72 56 137 103 65 47 136 102 159 123 79 73 95 70 51 -12 -24 -45 -51
-106 -73 -166 -6 -16 -16 -57 -22 -90 -6 -33 -16 -75 -22 -94 -10 -31 -12
-196 -4 -251 11 -69 84 -245 113 -271 10 -9 33 -33 52 -53 19 -20 39 -36 46
-36 6 0 20 -9 30 -20 10 -11 23 -20 29 -20 5 0 24 -13 41 -29 60 -59 173 -105
250 -103 139 5 196 14 208 33 9 14 23 19 54 19 23 0 45 5 49 11 3 6 22 17 40
25 19 8 34 18 34 24 0 5 19 18 43 28 56 25 115 77 131 117 8 18 26 41 41 51
15 11 33 26 41 34 105 116 126 141 122 145 -3 3 -13 -6 -22 -20 -15 -23 -20
-24 -33 -13 -13 10 -17 10 -20 1 -3 -7 -13 -13 -23 -13 -9 0 -23 -7 -30 -15
-7 -8 -18 -15 -25 -15 -6 0 -20 -9 -30 -20 -21 -23 -34 -18 -33 13 2 31 15 45
48 52 19 4 27 11 24 20 -4 9 4 16 23 21 15 4 44 15 63 24 19 10 43 21 54 24
17 6 18 8 2 24 -12 14 -13 21 -4 30 7 7 18 12 25 12 7 0 19 11 25 25 6 14 15
25 20 25 4 0 8 4 8 9 0 11 -96 -13 -115 -29 -9 -8 -13 -21 -9 -35 4 -18 -1
-28 -20 -40 -14 -10 -33 -14 -42 -11 -14 5 -13 11 10 41 15 19 25 39 22 43 -3
5 4 23 15 41 14 23 26 32 42 30 12 -1 41 1 65 5 38 7 42 10 42 38 0 21 -6 31
-19 35 -11 3 -22 11 -25 18 -6 17 46 83 84 107 25 15 30 24 30 57 0 44 10 51
71 51 33 0 40 4 45 25 3 14 13 25 21 25 8 0 11 -4 8 -10 -3 -5 3 -10 14 -10
11 0 22 9 26 20 9 30 76 89 108 96 15 3 35 17 43 30 9 13 23 24 30 24 22 0 40
46 25 64 -10 12 -7 17 18 30 16 9 40 16 52 16 l22 0 -21 -23 c-12 -13 -22 -28
-22 -34 0 -6 -9 -22 -20 -35 -26 -34 -16 -41 25 -17 32 19 65 71 65 102 0 9
10 19 23 23 19 7 18 8 -17 16 -41 9 -75 -6 -140 -62 -30 -26 -84 -50 -112 -50
-25 0 11 63 43 73 33 11 63 35 63 52 0 30 36 45 113 45 81 0 84 2 133 66 19
24 34 34 54 34 42 0 60 10 60 31 0 24 -25 35 -44 20 -7 -6 -21 -9 -30 -5 -20
8 -49 -14 -42 -33 8 -19 -63 -52 -135 -62 -56 -7 -62 -6 -66 10 -9 34 -47 20
-58 -21 -9 -37 -115 -83 -115 -50 0 6 4 10 8 10 5 0 19 9 32 20 18 16 20 20 7
20 -10 0 -17 -4 -17 -8 0 -5 -33 -22 -72 -37 -40 -16 -82 -35 -93 -41 -11 -7
-36 -15 -55 -19 -19 -4 -46 -14 -59 -22 -29 -19 -41 -5 -41 49 0 20 -6 38 -12
41 -10 3 -10 9 0 28 11 21 11 29 -2 54 -9 17 -16 35 -16 41 0 6 -9 19 -20 29
-11 10 -17 21 -15 25 7 11 -34 60 -51 60 -8 0 -17 6 -20 14 -7 19 -78 56 -107
56 -12 0 -38 10 -57 21 -46 29 -116 49 -168 49 -23 0 -59 7 -79 15 -50 21
-126 10 -180 -26 -112 -75 -140 -96 -174 -127 -64 -59 -123 -119 -154 -157
-16 -21 -73 -66 -126 -101 -54 -34 -100 -68 -104 -73 -3 -6 -13 -11 -22 -11
-9 0 -39 -17 -67 -38 -28 -22 -65 -46 -81 -54 -17 -9 -39 -25 -49 -37 -11 -12
-24 -21 -31 -21 -6 0 -20 -8 -31 -18 -18 -17 -128 -93 -198 -137 -41 -26 -211
-154 -304 -229 l-72 -59 -58 18 c-128 38 -170 45 -268 44 -55 -1 -134 -7 -175
-14 -41 -7 -76 -11 -78 -9 -7 6 354 362 409 404 25 19 79 69 120 110 41 41 89
84 105 95 17 11 82 72 145 136 64 64 130 124 148 133 51 26 43 55 -29 115 -70
59 -108 66 -155 29 -53 -43 -153 -72 -296 -89 -57 -6 -110 -15 -119 -20 -18
-9 -45 -15 -139 -29 -36 -5 -90 -15 -120 -20 -57 -11 -63 -12 -167 -24 -57 -7
-62 -6 -68 14 -7 21 -7 21 -41 -5 -31 -24 -43 -26 -146 -29 -72 -2 -138 2
-182 11 -38 8 -80 12 -93 9 -33 -9 -73 -96 -43 -96 6 0 10 -8 10 -18 0 -10 7
-28 15 -40 14 -19 62 -168 79 -243 6 -29 14 -18 -156 -227 -54 -66 -98 -125
-98 -131 0 -5 -9 -13 -20 -16 -11 -3 -20 -10 -20 -14 0 -9 -29 -44 -104 -121
-29 -30 -70 -75 -92 -100 -21 -25 -66 -76 -99 -114 -82 -94 -288 -266 -319
-266 -19 0 -24 6 -29 35 -6 38 5 124 21 165 6 14 18 52 27 85 9 33 25 79 36
102 10 24 19 45 19 48 0 3 25 59 56 123 59 124 69 145 105 232 12 30 30 73 40
95 10 22 21 58 25 80 4 22 13 49 20 60 7 11 20 69 29 130 15 95 16 119 4 180
-11 57 -20 77 -50 109 -33 36 -42 40 -105 47 -104 11 -210 -25 -434 -147 -48
-26 -215 -159 -331 -263 l-71 -65 8 50 c4 27 8 97 8 155 1 101 0 107 -28 143
-16 21 -44 44 -62 52 -39 16 -126 19 -152 4 -9 -5 -55 -28 -102 -49 -157 -74
-249 -140 -450 -323 -130 -118 -197 -193 -321 -361 -92 -124 -117 -165 -153
-249 -8 -21 -22 -38 -30 -38 -15 0 -251 -119 -296 -149 -14 -9 -36 -22 -50
-28 -26 -11 -186 -126 -305 -218 -38 -31 -90 -78 -115 -106 l-46 -51 -19 43
c-41 92 -105 193 -149 234 -45 44 -96 135 -96 172 0 11 7 26 15 33 8 7 15 19
15 26 0 7 7 31 15 52 13 33 25 42 73 62 31 13 95 44 142 68 47 24 168 87 270
140 102 52 217 113 255 135 39 22 106 59 150 82 44 22 94 48 110 57 82 44 160
78 180 78 33 0 57 32 53 71 -3 29 -10 37 -56 60 -29 14 -67 39 -83 55 -75 71
-125 211 -113 315 7 65 11 61 -61 64 -22 1 -47 4 -55 8 -8 4 -22 2 -30 -3z
m6119 -345 c34 -70 47 -139 32 -176 -12 -33 -50 -39 -171 -28 -79 7 -86 10
-112 41 -40 47 -44 72 -19 104 12 15 21 31 21 36 0 6 14 23 32 40 23 21 38 28
55 23 18 -4 25 0 33 19 25 66 80 41 129 -59z m-6238 -8 c14 -26 40 -62 58 -80
19 -21 29 -40 26 -49 -8 -21 -159 -140 -210 -166 -22 -11 -69 -38 -105 -61
-36 -22 -90 -54 -120 -71 -30 -16 -91 -52 -135 -80 -44 -27 -81 -45 -83 -41
-4 13 44 110 83 166 19 28 45 65 57 83 63 93 221 254 322 330 47 35 76 26 107
-31z m5725 -22 c-21 -84 79 -228 229 -329 22 -14 55 -37 73 -51 18 -13 45 -23
60 -23 15 1 42 -6 59 -16 18 -9 39 -16 48 -16 24 0 11 -51 -33 -130 -20 -36
-42 -77 -48 -91 -7 -15 -17 -29 -22 -33 -6 -4 -24 -30 -41 -59 -16 -28 -58
-81 -93 -117 -63 -65 -199 -180 -212 -180 -4 0 -27 -13 -50 -30 -24 -16 -74
-41 -111 -55 -38 -14 -74 -30 -81 -36 -7 -6 -32 -9 -56 -7 -40 3 -44 5 -56 43
-16 48 -30 121 -36 193 -3 30 -10 60 -17 68 -8 10 -7 24 5 56 8 24 17 72 19
108 3 40 13 82 25 107 12 22 30 73 40 112 l20 72 -29 15 c-16 8 -29 17 -29 20
0 8 31 65 46 84 6 8 15 26 19 40 22 73 134 207 197 233 18 8 39 21 47 30 20
25 34 21 27 -8z m-2421 -75 c-19 -21 -35 -18 -35 6 0 9 10 14 27 14 25 0 26
-1 8 -20z m1569 -302 c-16 -13 -38 -31 -49 -41 -10 -9 -55 -42 -100 -72 -44
-30 -93 -69 -110 -86 -16 -17 -46 -42 -65 -54 -19 -12 -68 -50 -109 -83 -59
-49 -78 -59 -88 -50 -12 10 -11 13 4 21 10 6 50 36 88 67 59 48 201 151 289
210 13 8 52 36 86 63 35 26 68 47 73 47 5 0 -3 -10 -19 -22z m1562 -105 c-3
-21 -5 -41 -5 -44 -2 -13 -54 -29 -77 -23 -30 8 -30 24 -1 69 18 28 28 35 55
35 32 0 32 -1 28 -37z m-1070 -45 c-4 -13 -14 -52 -24 -87 -20 -77 -48 -99
-37 -30 4 24 11 52 16 61 5 9 9 25 9 35 0 20 18 43 33 43 5 0 6 -10 3 -22z
m924 -127 c-17 -60 -72 -123 -90 -105 -11 11 15 74 30 74 5 0 16 14 25 30 21
40 47 41 35 1z m60 -6 c0 -8 -7 -15 -15 -15 -9 0 -12 6 -9 15 4 8 10 15 15 15
5 0 9 -7 9 -15z m-1042 -170 c2 -76 -1 -105 -9 -105 -14 0 -6 -121 11 -164 5
-15 6 -26 1 -26 -12 0 -61 59 -61 73 0 7 -5 41 -10 76 -7 51 -6 70 6 94 9 16
13 40 10 52 -3 13 -2 27 4 30 5 3 10 19 10 34 0 30 7 41 24 41 7 0 12 -38 14
-105z m894 -27 c-17 -24 -40 -50 -52 -58 -12 -8 -26 -24 -30 -36 -7 -17 -14
-20 -42 -16 l-33 5 28 9 c15 6 29 19 33 32 5 22 112 121 121 112 3 -3 -9 -24
-25 -48z m-44 20 c-6 -16 -36 -34 -44 -25 -9 9 15 37 33 37 8 0 13 -5 11 -12z
m-1949 -57 c0 -3 -32 -33 -71 -66 -112 -96 -136 -118 -181 -161 -23 -22 -67
-61 -97 -85 -104 -83 -246 -212 -406 -370 l-161 -159 -56 0 c-32 0 -57 4 -57
10 0 5 64 65 142 132 79 68 172 150 208 184 67 62 188 163 275 230 100 76 162
125 270 212 94 77 137 100 134 73z m1126 -80 c-6 -5 -25 10 -25 20 0 5 6 4 14
-3 8 -7 12 -15 11 -17z m-1019 -16 c48 -51 88 -114 104 -165 7 -25 24 -66 36
-91 26 -52 50 -149 65 -254 5 -38 12 -86 15 -106 l6 -36 -174 -6 c-95 -3 -189
-8 -208 -10 -50 -8 -151 -16 -340 -28 -91 -5 -200 -12 -242 -15 -47 -3 -78 -1
-78 5 0 28 744 741 774 741 5 0 23 -16 42 -35z m1635 -182 c-4 -25 -12 -39
-24 -41 -15 -3 -17 1 -11 25 14 59 44 73 35 16z m-182 -130 c-18 -25 -41 -43
-53 -43 -6 0 -4 5 4 10 8 5 16 15 16 22 1 7 2 16 3 21 0 4 11 7 22 7 19 0 20
-2 8 -17z m311 -373 c118 -6 253 -17 300 -25 47 -8 109 -17 138 -20 29 -2 74
-11 100 -19 26 -9 66 -20 90 -26 56 -14 53 -36 -8 -55 -14 -4 -53 -21 -87 -36
-33 -16 -69 -29 -78 -29 -9 0 -30 -7 -48 -16 -30 -16 -240 -68 -377 -94 -36
-7 -73 -17 -82 -22 -10 -5 -37 -11 -60 -13 -97 -12 -125 -17 -166 -31 -24 -8
-54 -12 -68 -10 -13 3 -40 -2 -60 -10 -19 -8 -49 -14 -67 -13 -18 0 -54 -4
-82 -10 -27 -6 -79 -16 -115 -21 -36 -6 -85 -15 -110 -21 -63 -15 -134 -27
-210 -38 -36 -5 -98 -16 -138 -25 -105 -23 -106 -23 -97 22 4 20 11 42 15 47
5 6 12 30 16 53 5 32 12 43 28 47 45 9 153 25 196 29 25 2 52 7 60 10 21 9
355 47 485 56 61 5 133 13 160 19 28 6 106 15 175 21 69 5 141 14 160 20 19 5
51 10 71 10 20 0 49 4 65 9 16 5 46 12 67 16 37 6 50 28 22 39 -8 3 -12 12 -9
20 14 37 -82 82 -160 74 -23 -3 -72 -1 -111 4 -106 13 -576 11 -885 -4 -381
-17 -364 -18 -368 10 -2 13 2 22 10 23 7 0 22 2 33 5 11 2 90 7 175 10 85 4
156 7 157 8 7 6 687 -5 863 -14z m-1572 -34 c21 -6 32 -16 32 -28 0 -15 -9
-18 -62 -19 -79 -2 -89 -3 -168 -12 -36 -4 -103 -9 -150 -11 -47 -3 -112 -7
-145 -10 -33 -3 -127 -10 -210 -16 -191 -14 -374 -30 -402 -36 -31 -6 -30 17
1 53 23 27 26 27 147 30 68 1 162 7 209 12 47 6 189 15 315 21 127 6 244 15
260 20 39 11 131 9 173 -4z m1476 -73 l50 -6 -50 -13 c-55 -14 -174 -33 -249
-40 -27 -3 -63 -9 -79 -14 -16 -6 -46 -10 -67 -10 -21 0 -58 -4 -81 -9 -129
-29 -586 -93 -599 -85 -5 3 -7 20 -3 38 4 22 1 38 -8 47 -18 17 -31 66 -20 73
4 2 100 7 212 11 112 3 206 8 208 10 7 7 634 5 686 -2z m-2764 -10 c0 -5 -13
-22 -28 -40 -24 -29 -35 -33 -95 -39 -59 -6 -67 -5 -61 9 10 28 70 65 110 70
21 2 47 4 57 5 9 1 17 -1 17 -5z m-270 -31 c0 -4 -15 -22 -32 -39 -35 -32 -92
-47 -238 -58 -36 -3 -76 -9 -90 -14 -14 -4 -50 -9 -80 -10 -111 -4 -219 -19
-425 -56 -82 -15 -177 -31 -210 -36 -193 -26 -597 -101 -835 -154 -63 -14
-149 -32 -190 -40 -41 -7 -124 -25 -185 -39 -140 -34 -271 -63 -360 -80 -38
-8 -205 -48 -370 -90 -165 -42 -343 -83 -395 -92 -52 -8 -115 -22 -140 -29
-49 -15 -94 -24 -309 -61 -171 -28 -161 -28 -161 -10 0 8 14 18 33 21 17 4 57
20 87 35 30 14 100 39 155 54 55 16 125 37 155 48 87 31 515 145 705 189 50
11 142 33 205 49 63 16 178 41 255 55 77 15 158 31 180 36 22 5 81 16 130 25
50 9 182 33 295 55 341 64 659 117 775 128 61 6 153 17 205 26 117 19 223 32
315 40 39 3 106 10 150 16 44 5 115 13 157 17 43 5 81 11 85 15 9 10 133 9
133 -1z m1586 -7 c3 -8 2 -58 -3 -112 l-8 -98 -35 -7 c-52 -11 -251 -50 -282
-55 -23 -4 -29 0 -39 23 -28 74 -55 117 -100 161 -27 26 -45 51 -41 54 4 4 50
10 102 14 52 3 154 12 225 19 174 18 175 18 181 1z m-856 -62 c0 -3 -22 -32
-48 -62 -74 -85 -89 -122 -55 -135 12 -5 28 5 52 32 47 52 102 82 170 93 50 8
58 6 113 -23 33 -17 70 -44 84 -60 23 -29 41 -74 32 -84 -7 -6 -173 -47 -278
-69 -47 -9 -119 -28 -160 -41 -41 -13 -109 -31 -150 -40 -85 -19 -230 -64
-230 -71 0 -14 298 40 343 62 17 8 47 15 67 15 20 0 72 9 116 20 80 21 267 60
286 60 13 0 6 -97 -12 -155 -10 -34 -19 -43 -53 -57 -23 -9 -64 -19 -92 -23
-27 -3 -113 -21 -190 -40 -77 -18 -151 -36 -165 -38 -14 -3 -72 -17 -130 -32
-58 -15 -117 -29 -131 -30 -15 -2 -66 -14 -115 -28 -49 -14 -105 -28 -124 -32
-19 -4 -39 -10 -45 -13 -12 -8 -135 -41 -153 -41 -20 -1 -6 55 29 112 16 27
29 52 29 57 0 17 55 73 85 86 27 12 28 13 7 14 -29 0 -25 17 30 115 53 94 256
354 293 374 37 20 395 51 395 34z m-610 -54 c0 -6 -31 -43 -68 -83 -38 -39
-75 -83 -84 -97 -9 -14 -34 -47 -55 -72 -62 -75 -109 -140 -128 -177 -44 -86
-112 -139 -178 -140 -12 0 -31 -7 -41 -15 -22 -17 -56 -20 -56 -6 0 5 20 37
45 72 25 35 56 80 69 99 28 42 152 185 277 320 91 98 92 99 143 103 28 2 57 4
64 5 6 1 12 -3 12 -9z m1430 -197 c-1 -20 -7 -62 -14 -92 -14 -61 -36 -79 -96
-80 -19 0 -53 -6 -75 -14 -22 -8 -59 -17 -82 -21 l-42 -7 2 95 2 94 60 21 c33
12 89 24 125 28 36 4 74 10 85 14 29 11 35 4 35 -38z m-58 -244 c-7 -7 -12
-20 -12 -30 0 -10 -11 -35 -25 -56 -13 -20 -27 -52 -30 -71 -3 -19 -15 -45
-25 -59 -11 -13 -20 -35 -20 -48 0 -12 -4 -25 -9 -28 -5 -3 -20 -27 -34 -54
-35 -66 -89 -144 -178 -253 -84 -105 -252 -279 -268 -279 -6 0 -24 -12 -40
-28 -114 -107 -390 -279 -520 -323 -31 -11 -90 -32 -131 -46 -67 -24 -93 -27
-246 -30 -165 -4 -174 -4 -249 22 -119 41 -170 75 -292 191 -102 99 -139 214
-122 389 18 196 27 212 146 248 127 38 123 40 123 -41 0 -82 21 -168 58 -235
48 -89 176 -182 320 -233 75 -27 210 -33 295 -14 26 5 67 14 92 20 24 5 52 14
62 19 10 6 56 29 103 52 47 22 87 44 90 48 3 3 21 15 40 25 36 20 50 30 155
115 174 141 345 348 386 468 11 32 26 69 33 83 7 14 17 46 20 72 8 54 17 61
91 77 28 5 77 16 110 24 49 11 63 11 75 0 11 -10 12 -15 2 -25z m-476 -73 c3
-8 -2 -28 -12 -43 -73 -113 -106 -160 -126 -183 -57 -65 -151 -159 -159 -159
-5 0 -41 -28 -81 -63 -104 -90 -190 -148 -292 -196 -161 -76 -305 -98 -424
-65 -135 36 -178 132 -144 325 17 95 23 101 147 134 433 115 802 204 945 226
36 6 76 17 90 24 34 18 50 18 56 0z m-1352 -92 c-4 -10 -21 -58 -38 -108 -24
-69 -37 -92 -56 -101 -28 -14 -168 -54 -187 -54 -22 0 -15 26 33 119 l46 90
67 25 c36 14 77 30 91 35 40 15 53 13 44 -6z m-373 -171 c-15 -31 -31 -68 -34
-82 -11 -45 -31 -61 -92 -75 -33 -7 -96 -25 -140 -40 -130 -43 -196 -63 -270
-80 -38 -9 -110 -30 -160 -45 -298 -96 -371 -114 -363 -89 6 18 240 137 458
233 30 13 85 37 121 54 37 17 104 45 150 63 46 17 102 39 124 49 22 9 58 23
80 30 22 7 63 20 90 30 28 10 53 16 57 13 4 -2 -5 -30 -21 -61z m2353 -47 c3
-9 0 -15 -9 -15 -16 0 -27 14 -18 24 10 10 21 7 27 -9z"/>
<path d="M10540 4365 c-7 -9 -11 -18 -8 -20 3 -3 11 1 18 10 7 9 11 18 8 20
-3 3 -11 -1 -18 -10z"/>
<path d="M7335 2520 c-19 -8 -19 -9 3 -9 12 -1 22 4 22 9 0 6 -1 10 -2 9 -2 0
-12 -4 -23 -9z"/>
<path d="M7228 2493 c-10 -2 -18 -9 -18 -15 0 -6 10 -8 23 -4 12 3 25 6 30 6
4 0 7 5 7 10 0 10 -12 11 -42 3z"/>
<path d="M12115 5200 c-3 -5 -2 -10 4 -10 5 0 13 5 16 10 3 6 2 10 -4 10 -5 0
-13 -4 -16 -10z"/>
<path d="M11390 5089 l-23 -31 22 11 c22 12 38 38 28 47 -3 3 -15 -9 -27 -27z"/>
<path d="M11500 5101 c0 -3 4 -12 8 -19 7 -10 12 -8 25 5 14 17 14 18 -9 19
-13 1 -24 -1 -24 -5z"/>
<path d="M11438 5069 c-25 -14 -22 -31 4 -27 13 2 24 11 26 21 4 19 -5 21 -30
6z"/>
<path d="M11320 5062 c0 -7 -3 -11 -7 -9 -5 1 -9 -2 -11 -8 -2 -5 1 -11 6 -13
11 -3 26 28 17 36 -3 3 -5 0 -5 -6z"/>
<path d="M11186 4994 c-8 -21 -1 -28 19 -20 9 3 15 11 13 18 -7 19 -25 20 -32
2z"/>
<path d="M11485 4973 c-16 -9 -45 -29 -63 -44 -18 -16 -39 -29 -46 -29 -21 0
-46 -44 -35 -61 7 -11 9 -9 9 7 0 16 12 28 43 43 36 17 141 101 127 100 -3 0
-18 -7 -35 -16z"/>
<path d="M11110 4955 c-7 -9 -11 -18 -8 -20 3 -3 11 1 18 10 7 9 11 18 8 20
-3 3 -11 -1 -18 -10z"/>
<path d="M11232 4813 c-17 -17 -22 -28 -14 -31 18 -6 62 25 62 43 0 23 -18 18
-48 -12z"/>
<path d="M11375 4789 c-11 -17 1 -21 15 -4 8 9 8 15 2 15 -6 0 -14 -5 -17 -11z"/>
<path d="M11297 4762 c-18 -20 -22 -32 -9 -32 4 0 12 11 19 25 13 30 12 31
-10 7z"/>
<path d="M11259 4718 c-7 -25 -7 -48 1 -48 6 0 10 4 10 9 0 5 3 16 6 25 3 9 1
16 -5 16 -6 0 -11 -1 -12 -2z"/>
<path d="M11188 4678 c-20 -32 -30 -60 -18 -53 13 8 43 65 37 71 -2 3 -11 -6
-19 -18z"/>
<path d="M11076 4604 c-9 -22 -2 -27 24 -19 12 4 19 12 17 18 -6 19 -34 20
-41 1z"/>
<path d="M10930 4550 c-14 -11 -21 -20 -17 -20 11 0 67 29 67 35 0 11 -27 3
-50 -15z"/>
<path d="M10631 4264 c-10 -22 -9 -25 5 -22 10 2 19 13 20 26 5 30 -10 28 -25
-4z"/>
<path d="M10515 4020 c-3 -5 -1 -10 4 -10 6 0 11 5 11 10 0 6 -2 10 -4 10 -3
0 -8 -4 -11 -10z"/>
</g>
</svg>
